<svg width="351" height="620" viewBox="0 0 351 620" fill="none" xmlns="http://www.w3.org/2000/svg">
<mask id="mask0_576_644" style="mask-type:alpha" maskUnits="userSpaceOnUse" x="0" y="0" width="351" height="620">
<rect width="351" height="620" rx="16" fill="#D9D9D9"/>
</mask>
<g mask="url(#mask0_576_644)">
<rect x="31.37" y="462.37" width="94.7521" height="93.26" rx="9.32841" fill="white" stroke="#5C6A85" stroke-width="0.74"/>
<path d="M113.774 515.156C111.292 515.475 108.81 515.191 106.364 515.297C105.797 515.333 105.478 515.191 105.478 514.517C105.478 510.795 105.478 507.072 105.478 503.349C105.478 502.747 105.726 502.498 106.328 502.534C106.577 502.534 106.789 502.534 107.038 502.534C108.491 502.534 108.491 502.534 108.527 503.952C108.527 506.257 108.527 508.561 108.527 510.866C108.527 512.674 108.314 512.532 110.264 512.532C111.044 512.532 111.788 512.603 112.568 512.496C113.1 512.461 113.455 512.709 113.809 512.993C113.774 513.737 113.774 514.446 113.774 515.156Z" fill="#242E49"/>
<path d="M95.515 502.392C96.3659 502.321 97.1104 502.463 97.855 502.711C99.1668 503.172 99.2022 503.243 98.7768 504.59C98.3868 505.902 98.3868 505.902 97.1104 505.37C96.5077 505.122 95.8695 504.909 95.2314 504.98C94.7705 505.051 94.2741 505.193 94.1323 505.725C93.9905 506.257 94.2741 506.647 94.6996 506.895C95.4796 507.32 96.295 507.639 97.075 508.065C98.245 508.703 99.2022 509.518 99.3086 511.008C99.4859 513.241 98.1386 514.943 95.7986 515.368C93.8841 515.723 92.1823 515.085 90.5514 514.269C90.1969 514.092 89.9487 513.879 90.3032 513.454C90.3741 513.347 90.445 513.241 90.4805 513.135C91.2605 511.61 91.2605 511.646 92.8914 512.213C93.6005 512.461 94.345 512.638 95.1605 512.567C95.6923 512.532 96.0468 512.284 96.1886 511.752C96.295 511.291 96.1177 510.901 95.7632 510.653C95.3732 510.369 94.9477 510.157 94.5577 509.944C94.0259 509.66 93.4941 509.483 92.9623 509.164C91.3314 508.171 90.6932 506.824 91.0478 505.158C91.4023 503.633 92.7496 502.498 94.4868 502.286C94.8768 502.357 95.2314 502.392 95.515 502.392Z" fill="#242E49"/>
<path d="M103.528 508.916C103.528 510.617 103.457 512.355 103.563 514.056C103.634 515.12 103.209 515.404 102.251 515.297C101.968 515.262 101.649 515.297 101.365 515.297C100.798 515.333 100.479 515.156 100.479 514.517C100.514 510.795 100.479 507.072 100.479 503.349C100.479 502.711 100.762 502.534 101.365 502.534C101.649 502.534 101.968 502.569 102.251 502.534C103.209 502.427 103.599 502.747 103.563 503.775C103.457 505.477 103.528 507.214 103.528 508.916Z" fill="#242E49"/>
<path fill-rule="evenodd" clip-rule="evenodd" d="M48.3608 502.605C46.5526 502.25 44.7444 502.392 42.9363 502.746V515.12C45.099 515.404 47.2971 515.687 49.4244 515.049C50.9135 514.624 52.1189 513.773 52.438 512.142C52.7216 510.511 51.7998 509.518 50.4526 508.774C50.4071 508.774 50.3908 508.73 50.3756 508.689C50.3671 508.666 50.3589 508.645 50.3462 508.632C52.7216 506.717 52.6862 504.484 50.2044 503.207C49.6371 502.924 48.999 502.711 48.3608 502.605ZM45.7726 505.973C45.7372 505.548 45.7017 504.874 46.8008 504.945C48.0417 504.98 48.8926 505.441 48.9635 506.292C49.0344 507.249 48.1835 507.746 46.8008 507.817C45.7764 507.845 45.7797 507.303 45.7843 506.556C45.7854 506.372 45.7866 506.176 45.7726 505.973ZM45.7726 510.901C45.6662 510.334 45.8081 509.696 47.049 509.802C48.3608 509.908 49.2471 510.476 49.2471 511.362C49.2471 512.248 48.2544 512.851 46.8717 512.957C45.7355 513.011 45.7552 512.426 45.7811 511.657C45.7892 511.418 45.7978 511.161 45.7726 510.901Z" fill="#242E49"/>
<path fill-rule="evenodd" clip-rule="evenodd" d="M66.23 508.951C66.23 505.051 63.6064 502.392 59.7064 502.392C55.771 502.392 53.1119 505.016 53.1119 508.88C53.0765 512.78 55.7355 515.475 59.6 515.475C63.4646 515.475 66.1945 512.78 66.23 508.951ZM56.7991 506.646C56.4092 507.32 56.2673 508.065 56.3028 508.738C56.3028 510.866 57.1891 512.248 58.7137 512.674C60.0255 513.099 61.4437 512.567 62.2236 511.362C63.11 509.979 63.1455 508.49 62.5427 507.001C62.0464 505.76 61.0537 505.016 59.7064 504.98C58.4655 504.945 57.4373 505.547 56.7991 506.646Z" fill="#242E49"/>
<path fill-rule="evenodd" clip-rule="evenodd" d="M77.2917 508.809C77.2208 512.709 79.8798 515.439 83.7089 515.475C87.5734 515.51 90.3388 512.851 90.4097 509.057C90.4452 505.086 87.857 502.392 83.9925 502.392C80.0571 502.392 77.3271 504.98 77.2917 508.809ZM81.9362 505.618C80.908 506.469 80.4825 507.568 80.4825 509.057C80.4935 509.134 80.501 509.227 80.5093 509.33C80.5281 509.561 80.5507 509.84 80.6244 510.086C81.0853 511.965 82.6453 513.064 84.3471 512.745C86.2616 512.39 87.4316 510.546 87.1479 508.313C86.9352 506.292 85.4461 504.838 83.7443 504.945C83.0707 505.016 82.468 505.193 81.9362 505.618Z" fill="#242E49"/>
<path fill-rule="evenodd" clip-rule="evenodd" d="M76.5704 515.289C76.8539 515.293 77.1608 515.297 77.5043 515.297C77.2496 514.884 77.0109 514.489 76.7813 514.109C76.2438 513.221 75.7569 512.416 75.2352 511.646C74.7034 510.866 74.5616 510.405 75.377 509.589C77.8234 507.108 76.7243 503.633 73.3916 502.711C72.1028 502.347 70.814 502.403 69.5078 502.461C69.161 502.476 68.813 502.491 68.4634 502.498C67.5771 502.534 67.2935 502.888 67.2935 503.81C67.3467 506.284 67.34 508.778 67.3333 511.262C67.3311 512.089 67.3289 512.914 67.3289 513.737C67.3289 515.262 67.3289 515.262 68.8534 515.262C70.2716 515.262 70.3071 515.262 70.3071 513.808C70.3071 513.656 70.3032 513.5 70.2993 513.342C70.2914 513.023 70.2833 512.699 70.3071 512.39C70.3159 512.284 70.305 512.168 70.294 512.05C70.2607 511.694 70.2264 511.327 70.7325 511.22C71.4061 511.114 72.0089 511.185 72.328 511.965C72.5052 512.372 72.718 512.762 72.9307 513.152C73.1434 513.542 73.3561 513.932 73.5334 514.34C73.8525 515.085 74.3843 515.368 75.1997 515.297C75.6317 515.275 76.0637 515.281 76.5704 515.289ZM70.296 506.599C70.3015 506.732 70.3071 506.867 70.3071 507.001C70.3562 507.168 70.3345 507.381 70.3122 507.601C70.2541 508.174 70.1916 508.79 71.3707 508.738C72.6825 508.668 73.5334 507.958 73.5334 506.895C73.5334 505.831 72.7888 505.264 71.5125 505.158C70.2325 505.066 70.2624 505.787 70.296 506.599Z" fill="#242E49"/>
<rect x="135.37" y="462.37" width="151.45" height="93.26" rx="9.32841" fill="#5C6A85" stroke="#5C6A85" stroke-width="0.74"/>
<path d="M174.247 503.857C173.409 506.838 172.571 509.725 171.825 512.612C171.546 513.636 171.08 514.661 170.894 515.779C170.708 516.71 170.149 516.896 169.311 516.989C168.379 517.082 168.1 516.524 167.914 515.965C167.448 514.475 167.076 512.891 166.703 511.308C165.865 507.955 164.933 504.602 164.095 501.249C166.424 500.877 166.33 500.877 166.796 502.646C167.634 506.092 168.473 509.538 169.218 512.984C169.776 512.984 169.87 512.705 169.963 512.333C170.894 508.887 171.732 505.44 172.664 501.994C172.85 501.156 173.409 500.97 174.154 500.97C174.899 500.97 175.551 501.063 175.737 501.808C176.389 505.347 177.693 508.7 178.438 512.146C178.531 512.612 178.345 513.078 178.718 513.357C179.09 513.357 179.276 513.171 179.276 512.891C179.556 510.284 180.487 507.769 180.953 505.254C181.139 504.509 181.512 503.764 181.605 502.926C181.791 500.97 181.884 500.97 184.119 501.063C184.213 502.926 183.188 504.509 182.909 506.279C182.629 508.141 181.884 509.911 181.512 511.774C181.139 513.543 180.487 515.22 180.021 516.989C179.183 517.082 178.438 517.176 177.693 516.989C176.575 512.426 175.458 508.235 174.247 503.857Z" fill="#E7EFF4"/>
<path d="M226.776 516.803C224.727 516.803 224.634 516.71 224.634 515.22C224.634 513.171 224.634 511.215 224.634 509.166C224.634 508.328 224.82 507.303 223.609 507.024C222.305 506.651 221.001 507.21 220.349 508.235C219.884 508.98 219.604 509.818 219.604 510.749C219.697 512.705 219.604 514.661 219.604 516.524C219.045 516.989 218.487 516.803 217.835 516.71C217.835 512.891 217.835 509.259 217.835 505.534C219.325 505.161 219.325 505.161 219.697 506.465C222.398 504.695 224.447 504.695 226.496 506.558C227.893 504.882 229.849 505.068 231.712 505.254C232.83 505.347 233.854 506.558 233.854 507.676C233.854 510.656 233.854 513.636 233.854 516.524C233.202 516.896 232.643 516.896 232.084 516.524C231.619 516.151 231.712 515.592 231.712 515.127C231.712 512.984 231.712 510.842 231.712 508.607C231.712 507.21 231.339 506.931 230.035 506.837C227.987 506.744 226.869 507.676 226.776 509.818C226.776 512.146 226.776 514.381 226.776 516.803Z" fill="#E7EFF4"/>
<path d="M236.834 508.793C236.462 507.862 236.648 507.21 237.207 506.651C238.976 504.602 242.329 504.23 244.564 505.72C245.496 506.372 245.961 507.117 245.961 508.234C245.961 510.19 246.055 512.053 245.961 514.009C245.868 515.033 246.613 515.033 247.172 515.126C247.079 515.592 246.986 516.058 246.8 516.617C246.241 516.989 245.682 516.71 245.123 516.803C244.285 516.989 244.378 515.965 243.819 515.872C242.888 516.244 241.863 516.617 241.025 516.896C239.814 517.455 238.79 516.803 237.859 516.523C236.927 516.244 236.182 515.406 236.182 514.195C236.182 512.891 236.089 511.587 237.486 510.935C238.417 510.563 239.256 510.004 240.373 510.004C241.212 510.004 242.143 509.818 242.981 509.538C243.912 509.259 244.099 508.328 243.54 507.582C242.702 506.465 239.442 506.372 239.069 507.676C238.417 509.352 237.579 508.607 236.834 508.793Z" fill="#E7EFF4"/>
<path d="M195.762 516.71C195.11 516.803 194.458 516.896 193.713 516.617C193.713 514.195 193.713 511.68 193.713 509.166C193.713 508.328 193.526 507.676 192.874 507.21C191.943 506.558 189.708 506.931 189.056 507.862C188.497 508.607 188.311 509.445 188.311 510.377C188.404 512.426 188.311 514.568 188.311 516.617C187.566 516.989 186.914 516.896 186.262 516.71C186.262 511.494 186.262 506.279 186.262 501.063C186.821 500.597 187.472 500.877 188.311 500.877C188.311 502.553 188.311 504.23 188.311 506.185C189.056 505.813 189.521 505.627 189.987 505.347C192.874 503.764 196.32 506.279 196.041 509.073C195.855 511.401 196.041 513.823 196.041 516.244C195.948 516.337 195.855 516.43 195.762 516.71Z" fill="#E7EFF4"/>
<path d="M205.634 515.592C203.957 516.803 202.281 517.548 200.232 516.896C198.835 516.43 197.81 515.126 197.717 513.823C197.717 512.612 198.742 511.122 200.045 510.656C200.697 510.47 201.349 510.004 202.188 510.19C203.119 510.377 203.864 509.818 204.795 509.725C205.82 509.538 206.099 508.514 205.261 507.676C204.982 507.396 204.702 507.024 204.423 507.024C202.933 507.024 201.256 506.465 200.325 508.328C199.859 509.259 198.928 508.793 198.183 508.607C199.393 505.44 201.07 504.509 204.237 505.161C204.702 505.254 205.354 505.068 205.727 505.347C206.658 505.906 207.496 506.558 207.496 507.955C207.403 510.004 207.496 511.96 207.496 514.009C207.496 514.475 207.31 515.126 208.148 515.126C209.173 515.22 208.8 515.965 208.8 516.43C208.8 516.803 207.589 517.269 207.124 517.082C206.472 516.803 205.913 516.43 205.634 515.592Z" fill="#E7EFF4"/>
<path d="M250.898 516.71C250.06 516.71 249.501 516.71 248.849 516.71C248.849 512.891 248.849 509.166 248.849 505.347C250.618 505.161 250.618 505.161 251.084 506.465C251.829 505.72 252.574 505.161 253.692 504.882C255.927 504.416 258.442 505.906 258.535 508.141C258.721 510.935 258.535 513.729 258.535 516.617C257.79 516.71 257.138 516.803 256.393 516.524C256.393 514.195 256.393 511.96 256.393 509.632C256.393 509.073 256.486 508.514 256.3 508.048C256.02 507.396 255.741 506.651 254.716 506.837C254.623 506.837 254.53 506.837 254.53 506.837C252.388 506.744 251.27 507.303 250.991 510.004C250.805 511.401 250.991 512.798 250.991 514.195C250.898 515.127 250.898 515.872 250.898 516.71Z" fill="#E7EFF4"/>
<path d="M211.036 507.303C210.663 506.651 209.266 507.676 209.266 506.186C209.266 504.695 210.477 505.534 211.036 504.975C211.036 504.043 211.036 503.019 211.036 502.088C211.688 501.436 212.433 501.901 213.178 501.622C213.271 502.833 213.271 503.95 213.364 504.975C214.016 505.534 214.761 504.975 215.32 505.347C215.6 506.931 215.6 506.931 213.271 507.117C213.271 509.352 213.271 511.681 213.271 513.916C213.271 514.661 213.644 514.94 214.389 515.033C215.506 515.22 215.413 515.313 215.413 516.617C215.227 516.71 215.041 516.803 214.855 516.803C212.154 516.989 210.85 516.524 211.036 512.985C211.129 511.122 211.036 509.259 211.036 507.396C211.129 507.396 211.129 507.303 211.036 507.303Z" fill="#E7EFF4"/>
<path d="M243.726 511.122C243.819 512.426 244.006 513.636 242.795 514.568C242.05 515.033 239.814 515.406 238.976 514.94C238.231 514.568 238.324 513.823 238.324 513.171C238.324 512.519 238.697 512.053 239.349 511.96C240.839 511.681 242.236 511.401 243.726 511.122Z" fill="#5C6A85"/>
<path d="M205.447 511.029C205.913 511.494 205.727 511.96 205.727 512.426C205.634 514.102 204.609 515.033 202.933 515.127C202.374 515.127 201.908 515.127 201.349 515.127C200.697 515.127 200.139 514.847 200.046 514.195C199.859 513.636 199.952 513.078 200.418 512.519C201.07 511.867 201.815 511.494 202.746 511.494C203.771 511.494 204.702 511.494 205.447 511.029Z" fill="#5C6A85"/>
<rect x="296.37" y="462.37" width="142.498" height="93.26" rx="9.38" fill="#242E49" stroke="#5C6A85" stroke-width="0.74"/>
<path d="M312.448 507.483C312.448 505.263 312.448 503.043 312.448 500.788C312.448 500.33 312.483 500.048 313.082 500.048C317.593 500.083 322.104 500.083 326.614 500.048C327.213 500.048 327.249 500.294 327.249 500.752C327.249 505.193 327.213 509.668 327.249 514.108C327.249 514.848 326.967 514.848 326.438 514.848C322.033 514.848 317.628 514.848 313.223 514.848C312.413 514.848 312.413 514.848 312.413 513.967C312.448 511.818 312.448 509.668 312.448 507.483Z" fill="#5D6A86"/>
<path d="M334.332 508.47C334.05 508.4 333.31 508.858 332.746 508.223C331.372 508.188 330.949 507.166 330.808 506.109C330.667 504.946 331.266 504.206 332.323 503.572C333.169 503.078 334.015 503.114 334.825 502.832C335.741 502.514 336.481 502.726 337.398 502.867C338.737 503.078 339.97 503.395 341.168 503.995C341.908 504.347 342.226 504.77 342.049 505.193C341.732 505.897 340.886 506.285 340.252 505.897C339.16 505.193 337.891 504.981 336.693 504.77C335.741 504.594 334.684 504.946 333.697 505.157C333.486 505.193 333.31 505.58 333.239 505.827C333.204 505.968 333.451 506.285 333.627 506.356C334.261 506.567 334.896 506.814 335.53 506.849C336.693 506.919 337.856 506.849 339.054 506.884C339.97 506.919 340.781 507.166 341.45 507.871C342.789 509.28 342.472 510.831 340.781 511.888C339.829 512.487 338.807 512.699 337.821 512.804C336.869 512.91 335.741 513.263 334.825 512.523C333.239 512.593 332.041 511.606 330.667 511.113C330.561 511.078 330.42 510.655 330.491 510.584C330.808 510.161 331.16 509.774 331.618 509.457C331.935 509.21 332.288 509.421 332.711 509.633C334.156 510.373 335.671 510.937 337.327 510.761C337.926 510.69 338.525 510.584 339.089 510.373C339.301 510.302 339.618 509.915 339.583 509.739C339.512 509.457 339.195 509.245 338.983 508.999C338.948 508.963 338.878 508.999 338.807 508.999C337.433 508.752 336.059 508.646 334.332 508.47Z" fill="#5D6A86"/>
<path d="M343.811 507.73C343.811 506.391 343.811 505.016 343.811 503.677C343.811 503.536 344.023 503.29 344.164 503.254C344.516 503.184 344.869 503.254 345.221 503.219C345.75 503.149 345.926 503.325 345.926 503.889C345.891 504.946 345.891 506.003 345.926 507.06C345.926 507.201 346.172 507.448 346.313 507.448C347.3 507.483 348.322 507.483 349.309 507.448C350.472 507.448 351.635 507.413 352.833 507.413C352.868 506.25 353.009 505.087 352.939 503.959C352.903 503.29 353.15 503.149 353.749 503.219C354.031 503.254 354.348 503.254 354.63 503.219C355.053 503.184 355.088 503.395 355.088 503.748C355.088 506.32 355.088 508.893 355.088 511.501C355.088 511.853 355.053 512.064 354.63 512.029C354.278 511.994 353.925 511.994 353.573 512.029C353.15 512.064 352.868 511.994 352.974 511.465C352.974 511.395 352.974 511.36 352.974 511.289C352.939 510.62 352.868 509.915 352.833 509.245C352.198 509.245 351.564 509.21 350.895 509.21C349.591 509.21 348.322 509.21 347.018 509.21C346.172 509.21 345.926 509.457 345.891 510.338C345.891 510.408 345.891 510.443 345.891 510.514C345.855 512.1 345.855 512.064 344.305 512.029C343.776 512.029 343.776 511.747 343.776 511.395C343.811 510.197 343.811 508.963 343.811 507.73Z" fill="#5D6A86"/>
<path d="M336.411 520.24C336.411 520.134 336.411 519.993 336.411 519.888C336.446 519.077 336.446 518.267 336.481 517.456C337.398 517.421 338.314 517.35 339.23 517.35C339.336 517.35 339.477 517.527 339.583 517.597C339.442 517.738 339.336 517.985 339.195 518.02C338.737 518.055 338.243 517.985 337.785 518.055C337.362 518.126 337.116 518.408 337.081 518.901C337.045 519.394 337.362 519.711 337.715 519.782C338.208 519.888 338.772 519.782 339.301 519.817C339.406 519.817 339.547 520.064 339.547 520.17C339.547 520.275 339.371 520.487 339.265 520.487C338.913 520.522 338.561 520.487 338.208 520.522C337.292 520.557 337.045 520.874 337.081 521.826C337.081 522.213 337.257 522.319 337.609 522.284C338.138 522.249 338.666 522.284 339.195 522.284C339.653 522.284 339.583 522.636 339.547 522.883C339.512 523.059 339.336 523.306 339.195 523.306C338.384 523.341 337.574 523.341 336.728 523.306C336.587 523.306 336.411 523.024 336.376 522.883C336.411 522.002 336.411 521.121 336.411 520.24Z" fill="#5D6A86"/>
<path d="M342.578 521.579C342.472 521.685 342.437 521.72 342.402 521.755C342.296 521.896 342.12 522.002 342.049 522.143C341.873 522.813 341.485 523.236 340.816 523.306C340.534 523.341 340.71 522.636 341.345 521.755C341.908 520.98 341.873 520.557 341.204 519.852C341.133 519.782 340.992 519.712 340.957 519.606C340.851 519.359 340.675 519.112 340.71 518.901C340.745 518.654 341.485 518.76 341.767 519.007C342.543 519.817 342.543 519.817 343.388 519.042C343.494 518.936 343.67 518.795 343.811 518.795C343.917 518.795 344.164 518.972 344.164 519.042C344.128 519.253 343.988 519.43 343.882 519.606C343.635 520.099 343.142 520.593 343.177 521.051C343.212 521.509 343.741 521.967 344.093 522.39C344.234 522.566 344.446 522.707 344.516 522.918C344.551 523.024 344.34 523.306 344.199 523.341C343.847 523.447 343.494 523.306 343.318 522.989C343.142 522.672 342.966 522.319 342.789 521.967C342.719 521.826 342.648 521.72 342.578 521.579Z" fill="#5D6A86"/>
<path d="M347.265 518.76C347.547 518.76 347.864 518.725 348.146 518.76C348.252 518.795 348.393 518.971 348.393 519.077C348.393 519.183 348.252 519.394 348.146 519.429C347.476 519.465 346.807 519.324 346.278 519.993C345.785 520.592 345.855 521.262 346.067 521.755C346.243 522.178 346.948 522.354 347.406 522.601C347.476 522.636 347.617 522.531 347.688 522.46C347.935 522.213 348.217 522.108 348.393 522.425C348.604 522.813 348.217 523.165 347.97 523.235C347.336 523.376 346.595 523.588 346.102 522.883C345.714 522.354 344.939 522.108 344.939 521.262C344.939 520.416 345.186 519.782 345.75 519.148C346.137 518.619 346.701 518.795 347.265 518.76Z" fill="#5D6A86"/>
<path fill-rule="evenodd" clip-rule="evenodd" d="M352.762 520.099C352.375 519.218 351.917 518.619 350.824 518.76C349.978 518.549 349.52 519.112 349.133 519.782C348.762 520.431 348.879 521.025 349.008 521.684C349.026 521.777 349.045 521.871 349.062 521.967C349.199 522.856 349.833 523.081 350.322 523.255C350.337 523.26 350.351 523.266 350.366 523.271C350.93 523.482 351.74 523.623 352.339 523.13C352.477 523.02 352.528 522.804 352.578 522.597C352.592 522.538 352.606 522.48 352.621 522.425C352.55 522.425 352.478 522.417 352.407 522.409C352.27 522.393 352.139 522.379 352.022 522.425C350.93 522.777 350.366 522.636 349.873 521.755C349.802 521.65 350.014 521.262 350.119 521.262C350.621 521.209 351.142 521.216 351.669 521.222C351.845 521.225 352.022 521.227 352.199 521.227C353.15 521.227 353.185 521.051 352.762 520.099ZM350.749 520.53C350.788 520.526 350.825 520.522 350.859 520.522C351 520.522 351.106 520.522 351.177 520.557C351.245 520.547 351.328 520.557 351.411 520.566C351.626 520.591 351.846 520.616 351.846 520.311C351.846 520.029 351.564 519.676 351.318 519.535C351.131 519.411 350.835 519.451 350.574 519.487C350.539 519.491 350.505 519.496 350.472 519.5C350.119 519.535 349.626 520.064 349.802 520.275C349.906 520.38 350.107 520.426 350.304 520.472C350.374 520.488 350.443 520.504 350.507 520.522C350.579 520.546 350.667 520.537 350.749 520.53Z" fill="#5D6A86"/>
<path fill-rule="evenodd" clip-rule="evenodd" d="M313.54 507.589C313.47 511.042 316.642 514.073 319.637 513.826C321.505 513.967 323.02 513.122 324.324 511.959C325.313 511.107 325.617 509.891 325.919 508.679C326.005 508.336 326.091 507.993 326.192 507.659C326.088 507.327 325.999 506.991 325.91 506.655C325.573 505.388 325.242 504.139 324.183 503.219C322.985 502.197 321.681 501.563 319.989 501.457C316.571 501.246 313.611 504.276 313.54 507.589ZM321.848 506.811C321.392 506.821 320.924 506.832 320.694 506.602C320.501 506.385 320.523 505.954 320.544 505.522C320.554 505.323 320.564 505.124 320.553 504.946V504.417C320.571 504.224 320.597 504.03 320.624 503.836C320.65 503.642 320.677 503.448 320.694 503.254C320.838 503.288 320.995 503.307 321.154 503.326C321.503 503.369 321.862 503.413 322.104 503.607C322.844 504.206 323.584 504.875 323.971 505.792C324.253 506.426 324.042 506.743 323.372 506.743H322.315L322.35 506.814C322.194 506.804 322.022 506.808 321.848 506.811ZM320.512 509.793C320.492 509.351 320.472 508.904 320.694 508.681C320.929 508.446 321.416 508.482 321.881 508.517C322.044 508.529 322.204 508.54 322.35 508.54H323.055C324.268 508.447 324.164 508.738 323.905 509.461L323.904 509.462C323.87 509.558 323.833 509.662 323.795 509.774C323.53 510.541 322.968 510.987 322.42 511.422C322.313 511.507 322.207 511.591 322.104 511.677C321.822 511.924 321.223 512.417 320.765 512.029C320.611 511.901 320.606 511.569 320.602 511.248C320.6 511.127 320.598 511.008 320.588 510.902C320.565 510.784 320.573 510.667 320.581 510.549C320.585 510.49 320.588 510.432 320.588 510.373C320.553 510.338 320.553 510.338 320.518 510.338C320.529 510.169 320.52 509.981 320.512 509.793ZM318.835 505.673C318.825 505.483 318.815 505.29 318.826 505.122C318.809 504.858 318.809 504.594 318.809 504.329C318.809 504.065 318.809 503.801 318.791 503.536C318.791 503.431 318.404 503.254 318.298 503.29C318.256 503.309 318.214 503.329 318.172 503.348L318.172 503.348C317.681 503.576 317.169 503.814 316.747 504.171C316.392 504.461 316.155 504.87 315.929 505.262C315.908 505.298 315.887 505.333 315.866 505.369C315.705 505.622 315.605 505.919 315.505 506.213C315.452 506.37 315.399 506.526 315.338 506.673L316.501 506.778H317.029C317.195 506.768 317.373 506.773 317.551 506.778C317.98 506.79 318.412 506.801 318.685 506.602C318.878 506.482 318.857 506.083 318.835 505.673ZM318.862 510.162C318.778 510.441 318.816 510.771 318.851 511.071C318.904 511.527 318.948 511.916 318.545 511.959C317.945 512.064 317.135 511.43 316.571 510.972C316.25 510.731 316.05 510.347 315.849 509.96C315.786 509.838 315.722 509.716 315.655 509.598C315.056 508.576 315.126 508.54 316.254 508.505H317.135C317.281 508.505 317.446 508.492 317.611 508.478C318.046 508.443 318.487 508.407 318.615 508.611C318.832 508.9 318.835 509.32 318.837 509.693C318.838 509.865 318.839 510.028 318.862 510.162Z" fill="#242E49"/>
<rect x="162.37" y="358.37" width="151.45" height="93.26" rx="9.13" fill="#5C6A85" stroke="#5C6A85" stroke-width="0.74"/>
<path d="M227.766 408.21C227.097 407.931 226.707 407.485 226.762 406.704C226.762 405.868 226.762 405.032 226.762 404.195C226.874 396.892 225.647 398.007 233.397 397.839C234.791 397.839 235.404 398.23 235.349 399.735C235.293 402.634 235.293 405.478 235.46 408.377C235.572 410.551 234.791 411.276 232.561 411.276C223.752 411.22 214.943 411.276 206.078 411.276C198.718 411.276 191.414 411.276 184.055 411.22C180.821 411.22 180.765 411.109 180.765 407.987C180.71 404.251 180.765 400.571 180.654 396.836C180.598 394.94 181.323 394.16 183.274 394.215C186.787 394.271 190.355 394.271 193.868 394.215C195.763 394.16 196.823 394.829 196.711 396.947C196.544 400.85 196.6 404.753 196.544 408.656C195.429 409.157 194.314 409.046 193.199 408.767C192.641 406.147 193.087 403.471 193.031 400.794C192.976 398.731 192.306 397.839 190.132 397.784C184.612 397.672 184.612 397.616 184.612 403.08C184.612 408.6 184.166 408.433 189.798 408.433C190.801 408.433 191.86 408.377 192.808 408.711C195.373 409.102 197.938 409.157 200.502 408.656C201.896 408.377 203.234 408.321 204.628 408.711C205.186 408.879 205.687 409.046 206.245 408.934C213.047 407.987 219.849 409.269 226.651 408.934C227.041 408.934 227.376 408.934 227.766 408.823C228.045 408.767 228.324 408.711 228.602 408.656C228.379 408.377 227.989 408.433 227.766 408.21Z" fill="#E6EFF4"/>
<path d="M286.029 391.595C292.942 394.104 296.789 401.017 295.173 407.987C293.611 414.789 287.311 419.249 280.007 418.691C273.429 418.19 267.853 412.28 267.463 405.255C267.184 399.958 270.808 394.104 275.603 392.097C276.049 391.929 276.774 391.037 277.164 392.041C277.387 392.598 277.387 393.323 276.662 393.769C276.105 394.104 275.547 394.383 274.99 394.773C270.585 397.672 268.801 402.69 269.916 407.875C270.92 412.558 274.209 414.956 278.279 416.238C282.572 417.632 286.419 416.294 289.82 413.227C292.719 410.663 293.556 407.373 293.333 403.805C293.054 399.791 291.047 396.613 287.479 394.55C286.308 393.825 285.137 393.267 286.029 391.595Z" fill="#E6EFF4"/>
<path d="M209.925 408.21C207.917 406.871 207.639 403.582 209.367 401.352C210.148 400.739 211.04 400.85 212.043 401.017C210.761 400.739 209.423 401.073 208.308 400.293C208.085 398.843 208.252 398.007 210.259 397.951C217.619 397.895 217.674 397.784 217.619 405.199C217.619 406.202 218.511 407.708 216.727 408.265C214.441 408.934 212.211 408.934 209.925 408.21Z" fill="#E6EFF4"/>
<path d="M241.426 408.098C236.519 408.042 236.352 408.99 236.408 403.192C236.464 397.895 236.408 397.895 241.76 397.951C243.544 397.951 245.886 397.114 245.719 400.515C245.496 404.307 245.997 403.415 242.652 403.693C241.593 403.749 239.642 402.578 239.642 404.753C239.697 406.816 241.649 405.478 242.652 405.812C243.154 405.979 243.767 405.868 244.325 405.812C245.217 405.756 245.719 405.924 245.663 406.983C245.663 408.154 244.938 408.042 244.158 408.042C243.266 408.098 242.373 408.098 241.426 408.098Z" fill="#E6EFF4"/>
<path d="M259.713 400.794C260.996 401.631 262.389 401.408 263.727 401.352C265.344 401.296 265.79 401.965 265.79 403.471C265.679 409.046 266.236 408.042 261.33 408.098C260.103 408.098 258.933 408.098 257.706 408.098C257.037 408.098 256.702 407.819 256.702 407.095C256.702 406.37 256.814 405.812 257.706 405.812C258.933 405.812 260.103 405.812 261.33 405.812C262.166 405.812 262.835 405.589 262.78 404.586C262.724 403.805 262.111 403.582 261.386 403.638C260.828 403.638 260.271 403.582 259.713 403.638C257.26 404.084 256.591 403.08 256.647 400.627C256.647 398.341 257.427 397.728 259.546 397.951C261.219 398.118 262.891 398.007 264.564 397.951C265.456 397.951 265.902 398.23 265.846 399.233C265.79 400.181 265.344 400.237 264.62 400.237C262.891 400.348 261.274 400.014 259.713 400.794Z" fill="#E6EFF4"/>
<path d="M251.238 409.157C255.42 409.157 259.602 409.157 263.783 409.157C264.508 409.157 265.679 408.711 265.735 410.049C265.79 411.276 264.787 411.22 263.95 411.22C255.42 411.22 246.834 411.22 238.304 411.22C237.579 411.22 236.687 411.276 236.631 410.217C236.575 408.823 237.69 409.157 238.415 409.157C242.708 409.157 246.945 409.157 251.238 409.157Z" fill="#E6EFF4"/>
<path d="M199.889 408.21C198.607 408.098 198.161 407.373 198.216 406.147C198.272 403.917 198.272 401.686 198.216 399.456C198.216 398.508 198.384 397.895 199.554 397.895C200.669 397.895 201.004 398.397 200.948 399.401C200.892 400.906 200.948 402.356 200.948 403.861C200.948 404.976 200.892 405.812 202.509 405.812C204.015 405.812 204.461 405.31 204.349 403.861C204.238 402.356 204.349 400.906 204.293 399.401C204.238 398.397 204.516 397.839 205.632 397.895C206.691 397.895 207.137 398.285 207.081 399.345C207.025 401.463 207.025 403.638 207.081 405.757C207.081 407.206 206.468 408.042 204.963 408.154C203.29 408.879 201.617 408.879 199.889 408.21Z" fill="#E6EFF4"/>
<path d="M246.889 403.08C246.889 397.839 246.889 397.951 252.186 397.895C254.528 397.895 255.364 398.676 255.141 400.962C254.974 402.913 255.03 404.864 255.141 406.816C255.197 408.042 254.472 408.098 253.58 408.098C252.576 408.098 252.298 407.708 252.298 406.816C252.353 405.032 252.298 403.303 252.298 401.519C252.298 400.516 251.907 400.237 250.959 400.293C250.067 400.293 249.566 400.571 249.621 401.575C249.677 403.136 249.621 404.753 249.621 406.314C249.621 407.206 249.844 408.154 248.339 408.21C246.722 408.21 246.834 407.262 246.834 406.203C246.945 405.143 246.889 404.14 246.889 403.08Z" fill="#E6EFF4"/>
<path d="M221.633 408.098C219.626 408.488 218.622 407.986 218.845 405.645C219.068 402.746 219.068 399.735 218.845 396.836C218.678 394.55 219.514 393.936 221.577 394.271C223.083 395.498 222.246 397.282 222.302 398.676C222.414 401.742 223.306 405.031 221.633 408.098Z" fill="#E6EFF4"/>
<path d="M284.691 395.999C284.691 397.728 283.297 399.177 281.569 399.177C279.729 399.233 278.168 397.672 278.168 395.888C278.168 394.829 280.732 391.762 281.569 391.818C282.349 391.818 284.747 394.996 284.691 395.999Z" fill="#E6EFF4"/>
<path d="M272.927 410.663C276.384 410.942 278.391 413.674 281.513 413.674C284.579 413.674 286.531 410.774 289.764 410.774C285.471 416.684 277.722 416.74 272.927 410.663Z" fill="#E6EFF4"/>
<path d="M225.592 398.062C225.592 400.571 225.424 403.08 225.647 405.533C225.87 407.931 224.867 408.433 222.86 408.042C221.577 405.032 222.191 401.909 222.469 398.843C222.581 397.17 224.365 397.728 225.592 398.062Z" fill="#E6EFF4"/>
<path d="M277.499 395.219C276.997 398.118 274.432 398.954 273.484 401.017C272.537 403.08 273.596 405.701 271.589 407.485C269.972 402.411 272.146 397.728 277.499 395.219Z" fill="#E6EFF4"/>
<path d="M291.214 407.373C289.486 405.478 290.489 402.913 289.43 400.794C288.426 398.899 285.973 398.062 285.639 395.442C290.657 397.17 293.388 403.247 291.214 407.373Z" fill="#E6EFF4"/>
<path d="M285.694 410.663C282.907 413.228 280.342 413.228 277.331 410.774C280.119 411.332 282.907 411.722 285.694 410.663Z" fill="#E6EFF4"/>
<path d="M276.495 399.623C275.826 400.739 275.157 401.854 274.154 403.582C273.986 401.24 275.046 400.237 276.049 399.289C276.161 399.345 276.328 399.456 276.495 399.623Z" fill="#E6EFF4"/>
<path d="M199.889 408.21C201.562 408.21 203.29 408.21 204.963 408.21C206.635 408.934 208.252 408.934 209.925 408.21C212.155 408.21 214.441 408.21 216.671 408.21C220.351 408.934 224.031 408.934 227.766 408.21C229.271 408.154 230.777 407.875 232.226 408.321C232.226 408.6 232.226 408.823 232.226 409.102C219.068 409.102 205.855 409.102 192.697 409.102C192.697 408.711 192.864 408.488 193.31 408.656C194.369 408.879 195.484 408.823 196.544 408.656C197.659 408.488 198.885 409.046 199.889 408.21Z" fill="#5C6A85"/>
<path d="M225.591 398.062C223.584 397.561 222.525 397.951 222.748 400.404C222.971 402.913 222.859 405.478 222.859 408.042C222.469 408.042 222.023 408.042 221.633 408.042C221.633 403.415 221.577 398.787 221.577 394.215C222.023 394.215 222.469 394.215 222.915 394.215C223.473 395.33 224.644 395.665 225.591 396.39C224.922 397.505 223.696 396.669 222.804 397.17C223.584 397.951 224.978 396.892 225.591 398.062Z" fill="#5C6A85"/>
<path d="M208.308 400.237C210.315 400.516 212.378 400.014 214.385 400.794C212.824 401.686 211.04 401.352 209.367 401.352C209.033 400.962 208.698 400.571 208.308 400.237Z" fill="#5C6A85"/>
<path d="M229.494 403.136C229.885 402.132 228.546 400.237 231.167 400.292C233.509 400.348 232.617 402.021 232.617 403.08C232.617 404.139 233.453 405.812 231.167 405.924C228.881 405.924 229.717 404.251 229.494 403.136Z" fill="#5C6A85"/>
<path d="M212.88 405.868C211.932 405.924 211.207 405.812 211.319 404.586C211.43 403.248 212.434 403.638 213.214 403.582C214.051 403.526 214.608 403.694 214.608 404.753C214.552 406.091 213.66 405.812 212.88 405.868Z" fill="#5C6A85"/>
<path d="M242.596 400.516C242.541 400.962 242.541 401.073 242.541 401.129C241.649 401.742 240.701 401.686 239.753 401.24C239.642 401.185 239.642 400.627 239.697 400.571C240.701 400.014 241.649 400.348 242.596 400.516Z" fill="#5C6A85"/>
<path d="M193.31 408.656C193.087 408.823 192.92 408.934 192.697 409.102C190.355 409.157 188.069 409.157 185.783 409.269C184.389 409.325 183.72 408.934 183.776 407.429C183.888 404.474 183.832 401.519 183.776 398.508C183.72 397.226 184.278 396.947 185.393 397.003C187.623 397.059 189.853 397.003 192.083 397.003C192.808 397.003 193.756 396.891 193.756 397.951C193.589 401.463 194.314 405.087 193.31 408.656Z" fill="#5C6A85"/>
<path d="M225.591 396.39C223.863 396.668 222.246 396.891 222.915 394.215C224.421 394.159 226.149 393.881 225.591 396.39Z" fill="#E6EFF4"/>
<rect x="10.37" y="358.37" width="142.498" height="93.26" rx="9.13" fill="#242E49" stroke="#5C6A85" stroke-width="0.74"/>
<path d="M72.3038 397.202C73.3425 395.938 74.7248 395.477 76.1154 395.913C77.2546 396.273 77.9583 397.177 77.9751 398.365C78.0002 399.579 77.9667 400.793 77.9918 402.007C78.0002 402.802 78.0588 403.589 78.0923 404.418C77.0955 404.418 76.0902 404.418 75.0263 404.418C75.0263 404.259 75.0263 404.117 75.0263 403.966C75.0263 402.459 75.0347 400.952 75.018 399.445C75.018 399.085 74.9677 398.717 74.8755 398.374C74.7415 397.897 74.3897 397.645 73.9206 397.645C73.4347 397.645 72.9823 397.788 72.798 398.282C72.6891 398.575 72.6305 398.901 72.6305 399.219C72.6137 400.793 72.6221 402.375 72.6221 403.949C72.6221 404.1 72.6221 404.251 72.6221 404.426C71.6336 404.426 70.6786 404.426 69.665 404.426C69.6566 404.284 69.6399 404.142 69.6399 403.991C69.6399 402.484 69.6483 400.977 69.6315 399.47C69.6315 399.111 69.598 398.742 69.5058 398.399C69.3886 397.922 69.0367 397.662 68.5592 397.654C68.0734 397.645 67.621 397.771 67.42 398.265C67.3027 398.566 67.244 398.91 67.244 399.236C67.2273 400.952 67.2357 402.668 67.2357 404.418C66.2388 404.418 65.2587 404.418 64.2534 404.418C64.2534 401.622 64.2534 398.843 64.2534 396.038C65.2084 396.038 66.1466 396.038 67.1435 396.038C67.1435 396.407 67.1435 396.758 67.1435 397.11C67.1686 397.126 67.2021 397.152 67.2273 397.168C67.8221 396.214 68.7016 395.846 69.7655 395.829C70.8629 395.804 71.7425 396.172 72.3038 397.202Z" fill="#5D6A86"/>
<path d="M48.0019 404.426C46.9631 404.426 45.9746 404.426 44.9359 404.426C44.9275 404.276 44.9107 404.125 44.9107 403.983C44.9107 402.459 44.9107 400.944 44.9023 399.42C44.9023 399.102 44.8772 398.776 44.8018 398.466C44.6678 397.913 44.3243 397.645 43.7966 397.629C43.2269 397.612 42.7829 397.88 42.6322 398.391C42.5484 398.667 42.5233 398.968 42.5233 399.253C42.5149 400.818 42.5149 402.375 42.5149 403.941C42.5149 404.092 42.5149 404.242 42.5149 404.41C41.5013 404.41 40.5295 404.41 39.541 404.41C39.541 400.383 39.541 396.373 39.541 392.338C40.5128 392.338 41.4845 392.338 42.5065 392.338C42.5065 393.795 42.5065 395.26 42.5065 396.859C43.2772 396.005 44.1568 395.72 45.162 395.753C46.7788 395.804 47.8846 396.917 47.893 398.524C47.9013 399.864 47.8846 401.203 47.9013 402.543C47.9181 403.162 47.9684 403.765 48.0019 404.426Z" fill="#5D6A86"/>
<path d="M110.595 392.338C111.592 392.338 112.556 392.338 113.569 392.338C113.569 393.82 113.569 395.268 113.569 396.817C114.156 396.264 114.742 395.913 115.462 395.787C117.121 395.502 118.57 396.381 118.897 397.897C118.914 397.98 118.939 398.064 118.939 398.148C118.939 400.224 118.939 402.3 118.939 404.41C118.034 404.41 117.037 404.41 115.982 404.41C115.973 404.276 115.957 404.125 115.957 403.983C115.957 402.459 115.965 400.944 115.948 399.42C115.948 399.077 115.915 398.725 115.831 398.391C115.714 397.913 115.37 397.654 114.893 397.645C114.407 397.629 113.946 397.754 113.753 398.248C113.636 398.55 113.578 398.893 113.569 399.219C113.552 400.793 113.561 402.367 113.561 403.949C113.561 404.1 113.561 404.251 113.561 404.426C112.547 404.426 111.584 404.426 110.587 404.426C110.595 400.4 110.595 396.39 110.595 392.338Z" fill="#5D6A86"/>
<path d="M90.1468 392.338C92.8191 392.338 95.4662 392.338 98.1553 392.338C97.9375 393.024 97.7364 393.694 97.5019 394.339C97.4684 394.439 97.2506 394.531 97.1249 394.531C96.0108 394.548 94.8966 394.54 93.7741 394.54C93.6233 394.54 93.4725 394.54 93.305 394.54C93.305 395.519 93.305 396.448 93.305 397.419C94.3605 397.419 95.416 397.419 96.5301 397.419C96.2956 398.165 96.0945 398.851 95.86 399.529C95.8348 399.604 95.6338 399.663 95.5165 399.671C94.7961 399.688 94.0673 399.68 93.2882 399.68C93.2882 401.262 93.2882 402.827 93.2882 404.418C92.2076 404.418 91.1856 404.418 90.1384 404.418C90.1468 400.391 90.1468 396.39 90.1468 392.338Z" fill="#5D6A86"/>
<path d="M32.1357 394.581C31.4907 394.581 30.9211 394.581 30.343 394.581C29.7902 394.581 29.2289 394.581 28.6509 394.581C28.6509 393.82 28.6509 393.091 28.6509 392.338C32.0352 392.338 35.4028 392.338 38.7955 392.338C38.7955 393.083 38.7955 393.82 38.7955 394.581C37.6144 394.581 36.4583 394.581 35.2688 394.581C35.2688 397.871 35.2688 401.136 35.2688 404.41C34.2133 404.41 33.1996 404.41 32.1357 404.41C32.1357 401.153 32.1357 397.897 32.1357 394.581Z" fill="#5D6A86"/>
<path d="M109.64 398.533C108.702 398.533 107.806 398.533 106.868 398.533C106.842 398.382 106.859 398.198 106.775 398.097C106.616 397.888 106.432 397.637 106.206 397.553C105.887 397.436 105.51 397.419 105.234 397.721C104.907 398.072 104.983 398.566 105.435 398.759C105.871 398.943 106.331 399.052 106.784 399.194C107.311 399.362 107.856 399.504 108.375 399.705C109.196 400.023 109.707 400.609 109.808 401.496C109.917 402.509 109.691 403.422 108.769 403.966C108.266 404.259 107.68 404.477 107.102 404.577C106.021 404.761 104.932 404.745 103.877 404.393C102.679 403.999 102.076 403.037 102.193 401.731C103.106 401.731 104.028 401.731 104.958 401.731C104.983 401.865 104.999 401.999 105.025 402.133C105.192 402.894 106.164 403.204 106.75 402.685C107.06 402.409 107.094 401.881 106.75 401.622C106.474 401.404 106.13 401.254 105.795 401.128C105.133 400.885 104.438 400.709 103.776 400.45C102.838 400.082 102.201 399.437 102.21 398.357C102.218 397.269 102.796 396.549 103.785 396.164C105.159 395.628 106.566 395.603 107.965 396.08C109.079 396.448 109.665 397.344 109.64 398.533Z" fill="#5D6A86"/>
<path d="M57.9036 396.013C58.8586 396.013 59.8136 396.013 60.8105 396.013C60.844 396.473 60.8691 396.925 60.9026 397.495C61.422 396.239 62.3602 395.887 63.5414 395.921C63.5414 396.766 63.5414 397.587 63.5414 398.457C63.2901 398.457 63.0388 398.441 62.7959 398.457C61.5058 398.55 60.9278 399.127 60.8943 400.425C60.8691 401.597 60.8859 402.769 60.8775 403.941C60.8775 404.091 60.8775 404.242 60.8775 404.418C59.8806 404.418 58.9089 404.418 57.8953 404.418C57.9036 401.622 57.9036 398.843 57.9036 396.013Z" fill="#5D6A86"/>
<path d="M128.975 396.013C129.921 396.013 130.876 396.013 131.89 396.013C131.907 396.423 131.932 396.833 131.957 397.378C132.468 396.13 133.389 395.737 134.587 395.762C134.587 396.607 134.587 397.445 134.587 398.29C134.303 398.307 134.026 398.307 133.75 398.332C132.635 398.449 132.057 399.018 132.007 400.149C131.949 401.413 131.965 402.685 131.949 403.958C131.949 404.108 131.949 404.259 131.949 404.426C130.943 404.426 129.988 404.426 128.966 404.426C128.975 401.622 128.975 398.843 128.975 396.013Z" fill="#5D6A86"/>
<path d="M98.4236 396.013C99.4037 396.013 100.359 396.013 101.347 396.013C101.347 398.809 101.347 401.589 101.347 404.401C100.384 404.401 99.4205 404.401 98.4236 404.401C98.4236 401.622 98.4236 398.843 98.4236 396.013Z" fill="#5D6A86"/>
<path d="M76.4503 409.299C76.4503 411.149 76.4503 412.991 76.4503 414.849C76.1404 414.849 75.8053 414.849 75.4451 414.849C75.4451 412.58 75.4451 410.312 75.4451 407.993C75.8304 407.993 76.2325 407.968 76.6262 408.01C76.7435 408.018 76.8608 408.185 76.9446 408.303C78.2011 410.019 79.4577 411.735 80.6724 413.401C80.6305 411.668 80.5802 409.86 80.5383 408.026C80.9237 408.026 81.2671 408.026 81.6274 408.026C81.6274 410.278 81.6274 412.547 81.6274 414.874C81.3006 414.874 80.9488 414.899 80.6137 414.858C80.4797 414.841 80.3457 414.69 80.2535 414.565C79.0053 412.857 77.7739 411.132 76.5341 409.424C76.5006 409.366 76.4671 409.324 76.4503 409.299Z" fill="#5D6A86"/>
<path d="M31.7253 414.363C31.8761 414.112 32.0185 413.87 32.1693 413.61C32.9987 414.004 33.8447 414.238 34.7327 414.163C35.1097 414.129 35.495 414.012 35.8469 413.861C36.1987 413.711 36.4165 413.409 36.4165 413.007C36.4165 412.597 36.1987 412.304 35.8385 412.17C35.3107 411.969 34.7495 411.835 34.205 411.668C33.8447 411.559 33.4762 411.484 33.1327 411.333C32.496 411.057 32.0269 410.605 31.985 409.868C31.9515 409.089 32.3704 408.554 33.0322 408.202C33.9872 407.7 35.0008 407.725 36.006 407.942C36.4751 408.043 36.9275 408.235 37.4385 408.403C37.2375 408.704 37.0867 408.93 36.9191 409.181C36.1484 408.78 35.3442 408.562 34.4982 408.671C34.1882 408.704 33.8615 408.796 33.5934 408.955C33.0154 409.299 33.0154 410.035 33.6186 410.328C34.1128 410.571 34.6657 410.672 35.1935 410.847C35.6793 411.006 36.1903 411.115 36.6511 411.341C37.7652 411.894 37.9663 413.2 37.1202 414.104C36.6008 414.665 35.9223 414.874 35.1767 414.966C34.0374 415.1 32.6552 414.874 31.7253 414.363Z" fill="#5D6A86"/>
<path d="M69.3131 408.01C69.2628 408.286 69.2209 408.537 69.1707 408.822C67.9057 408.822 66.6408 408.822 65.3591 408.822C65.3591 409.508 65.3591 410.161 65.3591 410.847C66.4398 410.847 67.5036 410.847 68.5843 410.847C68.5843 411.14 68.5843 411.383 68.5843 411.676C67.512 411.676 66.4481 411.676 65.3675 411.676C65.3675 412.472 65.3675 413.217 65.3675 414.012C66.7246 414.012 68.0733 414.012 69.4304 414.012C69.4304 414.313 69.4304 414.564 69.4304 414.841C67.7047 414.841 65.9958 414.841 64.2617 414.841C64.2617 412.564 64.2617 410.303 64.2617 408.01C65.9371 408.01 67.6042 408.01 69.3131 408.01Z" fill="#5D6A86"/>
<path d="M131.806 413.71C131.982 413.92 132.141 414.104 132.325 414.33C131.655 414.765 130.926 414.933 130.172 414.966C129 415.016 127.894 414.799 126.981 413.995C125.515 412.706 125.557 410.253 127.039 408.905C128.371 407.708 130.658 407.499 132.124 408.462C132.007 408.604 131.881 408.729 131.781 408.88C131.647 409.081 131.521 409.106 131.303 408.997C130.575 408.629 129.812 408.579 129.025 408.796C127.961 409.098 127.341 409.818 127.174 410.881C127.056 411.643 127.081 412.413 127.559 413.091C128.237 414.045 129.603 414.447 130.91 414.045C131.203 413.953 131.488 413.836 131.806 413.71Z" fill="#5D6A86"/>
<path d="M49.4845 413.711C49.6436 413.903 49.8112 414.104 49.9955 414.33C49.3086 414.765 48.5714 414.933 47.8007 414.966C46.6698 415.008 45.5975 414.799 44.7095 414.045C43.0425 412.631 43.2268 409.868 45.0865 408.621C46.4604 407.7 47.9431 407.599 49.4677 408.261C49.5766 408.311 49.6772 408.386 49.7944 408.453C49.7442 408.529 49.6939 408.579 49.6604 408.637C49.4426 409.039 49.1745 409.089 48.7305 408.905C47.1054 408.244 45.4048 408.981 44.9357 410.496C44.5588 411.718 44.8687 412.991 45.7651 413.644C46.6279 414.271 47.608 414.305 48.6049 414.037C48.8981 413.962 49.1745 413.828 49.4845 413.711Z" fill="#5D6A86"/>
<path d="M107.546 407.993C109.205 407.993 110.838 407.993 112.522 407.993C112.48 408.261 112.438 408.512 112.396 408.796C111.148 408.796 109.908 408.796 108.652 408.796C108.652 409.483 108.652 410.128 108.652 410.814C109.69 410.814 110.729 410.814 111.793 410.814C111.793 411.099 111.793 411.358 111.793 411.634C110.746 411.634 109.716 411.634 108.643 411.634C108.643 412.706 108.643 413.761 108.643 414.832C108.258 414.832 107.914 414.832 107.546 414.832C107.546 412.564 107.546 410.295 107.546 407.993Z" fill="#5D6A86"/>
<path d="M91.0265 414.841C90.6327 414.841 90.306 414.841 89.9458 414.841C89.9458 412.84 89.9458 410.847 89.9458 408.83C89.0997 408.83 88.2788 408.83 87.4243 408.83C87.4243 408.545 87.4243 408.294 87.4243 408.01C89.4935 408.01 91.5626 408.01 93.6736 408.01C93.6401 408.269 93.6066 408.52 93.5647 408.805C92.7103 408.805 91.8809 408.805 91.0181 408.805C91.0265 410.831 91.0265 412.815 91.0265 414.841Z" fill="#5D6A86"/>
<path d="M57.1328 414.849C56.781 414.849 56.4459 414.849 56.0857 414.849C56.0857 412.572 56.0857 410.312 56.0857 408.018C56.4208 408.018 56.7642 408.018 57.1328 408.018C57.1328 410.27 57.1328 412.538 57.1328 414.849Z" fill="#5D6A86"/>
<path d="M99.3533 408.001C99.7051 408.001 100.032 408.001 100.392 408.001C100.392 410.27 100.392 412.547 100.392 414.841C100.057 414.841 99.7135 414.841 99.3533 414.841C99.3533 412.572 99.3533 410.303 99.3533 408.001Z" fill="#5D6A86"/>
<path d="M118.378 414.824C118.378 412.539 118.378 410.287 118.378 408.01C118.73 408.01 119.073 408.01 119.442 408.01C119.442 410.27 119.442 412.53 119.442 414.824C119.106 414.824 118.755 414.824 118.378 414.824Z" fill="#5D6A86"/>
<path d="M102.084 392.321C101.85 393.058 101.649 393.719 101.423 394.372C101.397 394.439 101.288 394.523 101.213 394.523C100.308 394.531 99.4036 394.531 98.4319 394.531C98.6664 393.795 98.8759 393.108 99.1021 392.43C99.1188 392.371 99.2528 392.321 99.3366 392.321C100.225 392.313 101.121 392.321 102.084 392.321Z" fill="#5D6A86"/>
<path fill-rule="evenodd" clip-rule="evenodd" d="M82.6541 404.632C82.8514 404.662 83.0487 404.692 83.2442 404.728C85.3636 404.669 86.838 403.824 87.4746 402.216C87.8851 401.178 87.927 400.098 87.7092 399.01C87.3825 397.411 86.4191 396.39 84.8526 395.963C83.7217 395.653 82.5824 395.67 81.4683 396.03C80.2201 396.423 79.3656 397.252 78.9719 398.516C78.6284 399.621 78.6284 400.735 78.9551 401.848C79.3405 403.154 80.1866 404.016 81.485 404.401C81.8648 404.513 82.2594 404.572 82.6541 404.632ZM81.8019 400.743C81.7759 400.561 81.7501 400.379 81.7196 400.199C81.7196 400.199 81.7196 400.199 81.7196 400.198C81.7469 400.025 81.7705 399.852 81.794 399.681C81.8495 399.274 81.9041 398.875 82.004 398.492C82.0042 398.492 82.0043 398.491 82.0044 398.491C82.0154 398.451 82.0275 398.412 82.0407 398.374C82.2383 397.807 82.6766 397.52 83.2107 397.52C83.864 397.52 84.3414 397.821 84.5342 398.474C84.5342 398.474 84.5342 398.474 84.5343 398.474C84.5434 398.505 84.5522 398.535 84.5609 398.565C84.8858 399.708 84.8763 400.865 84.5091 402.007C84.3081 402.643 83.8809 402.903 83.2443 402.894C83.2442 402.894 83.2443 402.894 83.2443 402.894C82.6496 402.886 82.2056 402.61 82.038 401.991C82.038 401.991 82.0379 401.99 82.0379 401.99C81.9212 401.582 81.8614 401.162 81.8019 400.743Z" fill="#5D6A86"/>
<path fill-rule="evenodd" clip-rule="evenodd" d="M128.154 401.664H125.356C125.34 401.716 125.328 401.762 125.316 401.804C125.31 401.828 125.303 401.851 125.297 401.873C125.096 402.576 124.635 402.936 123.932 402.936C123.27 402.936 122.809 402.568 122.65 401.848C122.601 401.637 122.581 401.415 122.558 401.179C122.546 401.049 122.534 400.916 122.516 400.776H128.221C128.229 399.83 128.154 398.951 127.861 398.097C127.458 396.925 126.654 396.164 125.431 395.929C124.803 395.812 124.158 395.753 123.521 395.779C121.578 395.862 120.154 397.068 119.802 398.901C119.609 399.939 119.676 400.977 119.927 402.007C120.271 403.413 121.176 404.276 122.583 404.51C123.345 404.636 124.141 404.669 124.912 404.602C126.001 404.518 126.947 404.041 127.618 403.129C127.928 402.702 128.12 402.216 128.154 401.664ZM124.806 397.622C125.235 398.004 125.336 398.559 125.373 399.152H122.617C122.617 399.152 122.617 399.151 122.617 399.151C122.649 398.549 122.706 397.962 123.21 397.576C123.224 397.566 123.239 397.555 123.253 397.545C123.264 397.537 123.275 397.53 123.286 397.522C123.51 397.374 123.753 397.295 123.997 397.294C124.202 397.294 124.407 397.35 124.601 397.469C124.601 397.469 124.602 397.469 124.602 397.47C124.677 397.517 124.745 397.568 124.806 397.622Z" fill="#5D6A86"/>
<path fill-rule="evenodd" clip-rule="evenodd" d="M51.5623 400.777H57.2587C57.2129 400.491 57.175 400.208 57.1376 399.929C57.0652 399.39 56.9947 398.865 56.8733 398.357C56.5466 397.018 55.6754 396.172 54.3099 395.913C53.7152 395.804 53.0869 395.754 52.4837 395.779C50.5821 395.846 49.158 396.984 48.7811 398.759C48.513 399.99 48.5968 401.229 48.9989 402.426C49.2669 403.229 49.7696 403.866 50.557 404.192C52.1068 404.82 53.69 404.887 55.2314 404.2C56.2953 403.723 56.9655 402.886 57.0995 401.656H54.3267C53.9497 402.735 53.3633 403.121 52.4921 402.886C51.7801 402.694 51.3696 401.789 51.5623 400.777ZM53.5392 397.47C54.1424 397.838 54.2932 398.458 54.3016 399.152C54.2532 399.152 54.2049 399.152 54.1568 399.152H51.5623C51.5624 399.15 51.5626 399.147 51.5627 399.144L51.5623 399.144C51.5958 398.525 51.6544 397.93 52.1989 397.545C52.6094 397.252 53.1036 397.21 53.5392 397.47Z" fill="#5D6A86"/>
<rect x="197.37" y="254.37" width="142.498" height="93.26" rx="9.13" fill="#242E49" stroke="#5C6A85" stroke-width="0.74"/>
<path d="M309.914 303.234C309.914 305.976 308.65 308.048 305.85 308.048C303.051 308.048 301.787 305.921 301.787 303.234V291.953H299.223V303.23C299.223 306.919 301.462 310.4 305.85 310.4C310.137 310.4 312.435 306.919 312.435 303.23V302.491H309.914V303.234ZM293.166 310.032H295.731V291.953H293.166V310.032ZM269.934 291.979H269.52V294.282H269.934C273.587 294.282 276.468 297.291 276.468 301.163C276.468 305.062 273.587 308.07 269.934 308.07C266.282 308.07 263.396 305.062 263.396 301.163H261.013C261.013 306.317 264.961 310.373 269.934 310.373C274.908 310.373 278.851 306.317 278.851 301.163C278.851 296.034 274.908 291.979 269.934 291.979ZM318.14 300.06C316.894 299.483 315.397 299.191 314.307 298.72C313.113 298.195 312.677 297.483 312.677 296.304C312.677 294.889 313.819 293.814 315.557 293.814C317.841 293.814 318.907 294.967 318.957 296.645H321.267C321.344 294.023 319.502 291.585 315.557 291.585C312.313 291.585 310.155 293.657 310.155 296.278C310.155 298.502 311.162 299.768 312.771 300.659C314.017 301.34 315.323 301.498 316.543 301.969C318.327 302.649 318.868 303.586 318.868 304.912C318.868 306.729 317.655 307.889 315.656 307.889H315.404V310.038H315.555C319.105 310.038 321.356 307.754 321.356 304.9C321.357 303.025 320.472 301.132 318.14 300.06ZM290.201 297.658C290.201 294.387 287.922 291.955 284.632 291.955H279.424V294.337H284.549C286.207 294.337 287.814 295.671 287.814 297.657C287.814 299.567 286.337 301.006 284.472 301.006H281.767V303.387L283.805 303.366L287.213 310.033H290.037L286.355 303.061C288.281 302.456 290.201 300.404 290.201 297.655V297.658ZM266.048 291.953H253.087V294.331H256.2V310.033H258.738V294.331H266.048V291.953ZM234.155 291.953L227.446 310.033H229.934L235.477 295.066L241.202 310.033H243.87L236.798 291.953H234.155ZM219.088 304.411V303.445H216.679V304.41C216.601 307.339 218.511 310.037 222.837 310.037H222.992V307.841H222.837C220.531 307.841 219.088 306.323 219.088 304.413V304.411ZM225.246 300.092C224.002 299.516 222.422 299.202 221.334 298.731C220.142 298.21 219.779 297.475 219.779 296.297C219.779 294.883 220.917 293.811 222.655 293.811C224.935 293.811 225.997 294.962 226.049 296.637H228.354C228.432 294.019 226.593 291.585 222.654 291.585C219.415 291.585 217.239 293.653 217.238 296.273C217.238 298.366 218.068 299.779 219.778 300.669C221.022 301.32 222.369 301.506 223.587 301.977C224.883 302.475 225.375 302.894 225.556 303.627H228.173C227.811 302.083 226.801 300.828 225.246 300.093V300.092ZM251.986 297.654C251.986 294.383 249.707 291.951 246.417 291.951H241.112V294.331H246.334C247.992 294.331 249.598 295.666 249.598 297.651C249.598 299.562 248.122 301.001 246.257 301.001H243.459V303.382L245.593 303.361L249.001 310.028H251.825L248.144 303.056C250.066 302.456 251.986 300.404 251.986 297.655V297.654Z" fill="#5D6A86"/>
<rect x="44.37" y="254.37" width="143.244" height="93.26" rx="9.13" fill="#242E49" stroke="#5C6A85" stroke-width="0.74"/>
<path d="M75.7708 311.673C77.6947 310.61 79.3655 309.698 81.0363 308.787C82.6058 311.217 82.3526 313.951 80.3274 316.078C78.2516 318.305 75.1632 318.913 72.4798 317.647C69.6952 316.331 68.1763 313.293 68.7332 310.356C68.9864 308.989 69.6446 307.876 70.4547 306.762C73.7456 302.205 73.7456 299.977 70.5053 295.471C67.9232 291.927 68.0244 288.282 70.7078 285.7C73.0368 283.472 76.6315 283.219 79.2642 285.092C81.897 286.966 82.6564 290.155 81.1375 293.396C80.2768 292.94 79.4161 292.434 78.5554 291.978C77.6947 291.522 76.834 291.016 75.7201 290.408C75.7708 297.547 75.7708 304.433 75.7708 311.673Z" fill="#5D6A86"/>
<path d="M88.4788 297.547C91.2128 293.952 95.3644 293.395 98.4528 296.079C101.389 298.56 101.541 302.965 98.9085 305.699C96.0732 308.635 90.6558 308.382 88.5294 304.737C90.0483 303.167 92.276 302.661 93.9974 301.192C92.5291 299.471 90.2508 299.015 88.4788 297.547Z" fill="#5D6A86"/>
<path d="M161.436 302.256C161.436 300.433 161.436 298.61 161.436 296.737C161.436 296.028 161.183 295.066 162.449 295.117C163.411 295.168 163.36 295.876 163.36 296.585C163.36 299.522 163.36 302.458 163.36 305.395C163.36 305.952 163.461 306.66 162.753 306.863C161.942 307.066 161.284 306.812 160.829 306.053C159.563 303.876 158.247 301.749 156.424 299.674C156.424 301.598 156.424 303.521 156.424 305.445C156.424 306.104 156.474 306.863 155.462 306.863C154.449 306.914 154.449 306.205 154.449 305.496C154.449 302.559 154.449 299.623 154.449 296.686C154.449 296.079 154.196 295.269 155.209 295.117C156.069 294.965 156.626 295.319 157.031 296.079C158.247 298.205 159.563 300.332 160.829 302.458C161.031 302.408 161.234 302.357 161.436 302.256Z" fill="#5D6A86"/>
<path d="M120.173 299.775C120.173 298.864 120.122 297.952 120.173 296.99C120.224 296.231 119.869 295.168 121.185 295.117C122.603 295.066 122.249 296.13 122.249 296.889C122.299 298.712 122.198 300.585 122.299 302.408C122.35 303.825 122.806 305.142 124.578 305.142C126.35 305.142 126.805 303.927 126.856 302.458C126.907 300.534 126.856 298.61 126.856 296.686C126.856 295.927 126.755 295.117 127.919 295.117C129.033 295.168 128.982 295.978 128.982 296.737C128.982 298.661 129.033 300.585 128.982 302.509C128.881 305.547 127.261 307.116 124.476 307.066C121.793 307.015 120.325 305.445 120.173 302.56C120.173 301.648 120.173 300.737 120.173 299.775Z" fill="#5D6A86"/>
<path fill-rule="evenodd" clip-rule="evenodd" d="M108.704 300.339C108.717 300.541 108.731 300.742 108.731 300.939C108.731 301.425 108.725 301.916 108.72 302.411C108.708 303.413 108.697 304.429 108.731 305.445C108.74 305.546 108.742 305.647 108.745 305.747C108.756 306.197 108.767 306.623 109.389 306.914C113.034 308.534 117.237 306.104 117.439 302.154C117.49 300.99 117.49 299.826 117.287 298.661C116.781 295.674 114.553 294.56 110.098 295.168C108.361 295.406 108.548 296.468 108.734 297.524C108.824 298.038 108.914 298.55 108.781 298.965C108.64 299.391 108.672 299.866 108.704 300.339ZM112 297.041C111.99 297.041 111.981 297.041 111.971 297.041C110.773 297.041 110.814 297.72 110.855 298.401C110.868 298.613 110.881 298.824 110.857 299.016C110.823 299.456 110.835 299.919 110.846 300.375C110.852 300.6 110.857 300.823 110.857 301.041C110.857 301.301 110.841 301.561 110.825 301.824C110.801 302.227 110.776 302.637 110.807 303.066C110.831 303.257 110.818 303.468 110.805 303.68C110.763 304.364 110.722 305.052 111.92 305.091C112.728 305.121 113.554 305.133 114.167 304.773C114.618 304.532 114.958 304.11 115.11 303.37C115.414 301.8 115.465 300.18 115.06 298.61C114.604 297.041 113.338 297.041 112.022 297.041C112.014 297.041 112.007 297.041 112 297.041Z" fill="#5D6A86"/>
<path fill-rule="evenodd" clip-rule="evenodd" d="M137.893 305.648C138.4 306.914 139.26 307.167 140.678 306.711C140.476 306.154 140.324 305.749 140.121 305.395C140.043 305.255 139.964 305.117 139.886 304.982C139.007 303.447 138.256 302.138 140.07 300.23C141.589 298.661 140.172 295.876 137.944 295.37C137.14 295.191 136.301 295.188 135.457 295.184C134.867 295.182 134.275 295.179 133.691 295.117C132.375 294.965 131.97 295.573 132.02 296.838C132.078 298.401 132.07 299.98 132.062 301.557C132.055 302.739 132.049 303.92 132.071 305.091C132.071 305.226 132.055 305.375 132.038 305.529C131.965 306.183 131.885 306.914 133.033 306.914C134.161 306.955 134.151 306.274 134.142 305.579C134.14 305.432 134.138 305.283 134.147 305.142C134.147 305.008 134.141 304.87 134.136 304.729C134.124 304.442 134.113 304.148 134.147 303.876C134.147 303.784 134.142 303.688 134.137 303.59C134.111 303.038 134.082 302.428 134.856 302.256C135.716 302.053 136.324 302.357 136.678 303.167C136.855 303.597 137.071 304.002 137.286 304.407C137.501 304.812 137.716 305.218 137.893 305.648ZM135.35 300.48L135.311 300.484C134.903 300.547 134.533 300.434 134.311 300C134.162 299.732 134.065 299.345 134.046 298.813C134.046 297.541 134.352 296.971 135.577 296.979C135.683 296.978 135.797 296.982 135.919 296.99C136.017 296.998 136.116 297.006 136.215 297.013C137.331 297.094 138.4 297.172 138.4 298.661C138.4 299.927 137.543 300.238 136.282 300.39C135.991 300.425 135.678 300.452 135.35 300.48Z" fill="#5D6A86"/>
<path fill-rule="evenodd" clip-rule="evenodd" d="M149.766 305.645C150.376 306.481 150.939 307.254 152.424 306.66C151.158 303.116 149.943 299.623 148.728 296.13C148.525 295.522 148.272 295.066 147.513 295.066C146.855 295.066 146.399 295.218 146.146 295.927C144.931 299.522 143.665 303.066 142.349 306.711C143.797 307.148 144.419 306.406 145.083 305.614C145.65 304.938 146.246 304.226 147.412 304.18C148.664 304.132 149.233 304.913 149.766 305.645ZM147.31 298.737C147.399 298.724 147.488 298.712 147.563 298.712C147.766 299.319 147.981 299.914 148.196 300.509C148.412 301.104 148.627 301.699 148.829 302.306C148.824 302.309 148.819 302.311 148.815 302.313C148.819 302.328 148.824 302.342 148.829 302.357C147.817 302.813 147.007 302.711 145.943 302.509C145.948 302.493 145.954 302.477 145.959 302.461C145.954 302.46 145.948 302.459 145.943 302.458C146.144 301.74 146.362 301.039 146.577 300.345C146.741 299.814 146.904 299.288 147.057 298.762C147.133 298.762 147.222 298.75 147.31 298.737Z" fill="#5D6A86"/>
<rect x="-116.63" y="254.37" width="151.45" height="93.26" rx="9.13" fill="#242E49" stroke="#5C6A85" stroke-width="0.74"/>
<path d="M2.65018 294.691C3.27543 296.629 3.87984 298.568 4.52593 300.485C4.63013 300.798 4.90107 301.048 5.10949 301.34C5.3179 301.048 5.58884 300.756 5.69305 300.443C6.4225 298.422 7.11028 296.379 7.79805 294.337C9.88221 294.337 11.9455 294.337 14.0297 294.295C14.905 294.274 15.3427 294.524 15.2176 295.358C14.8842 295.504 14.5507 295.65 14.2381 295.796C14.0088 296.171 13.6128 296.546 13.6128 296.942C13.5503 299.255 13.5503 301.59 13.6128 303.903C13.6337 304.403 13.9463 304.903 14.1339 305.425C14.2589 305.466 14.3423 305.55 14.3631 305.675C14.9259 305.841 15.5094 306.008 16.0721 306.196C16.3848 307.279 16.0513 307.78 14.6549 307.717C12.8625 307.613 11.0493 307.696 9.25696 307.696C8.65256 307.696 7.94395 307.842 7.90226 306.967C7.88142 306.383 7.88142 305.841 8.79845 305.8C9.69463 305.758 9.88221 305.174 9.88221 304.487C9.88221 302.403 9.90305 300.297 9.88221 298.213C9.88221 297.984 9.67379 297.755 9.54874 297.505C9.38201 297.734 9.13191 297.963 9.04855 298.234C8.21489 300.693 7.40206 303.174 6.58923 305.654C6.48503 305.946 6.31829 306.237 6.27661 306.529C6.15156 307.759 5.19285 307.675 4.17162 307.717C3.08786 307.759 2.58766 307.446 2.31672 306.467C1.5039 303.674 0.545186 300.902 -0.371843 298.151C-0.434368 297.942 -0.621946 297.734 -0.746996 297.546C-0.851203 297.776 -1.01793 298.026 -1.01793 298.255C-1.03877 300.339 -1.01793 302.444 -1.01793 304.528C-1.01793 305.216 -0.872041 305.8 0.044988 305.841C1.02454 305.862 0.899488 306.446 0.899488 307.008C0.920329 307.738 0.357608 307.738 -0.225956 307.738C-1.68487 307.717 -3.12293 307.738 -4.58184 307.738C-5.18625 307.738 -5.87402 307.842 -5.9157 306.988C-5.95739 306.237 -5.74897 305.821 -4.79026 305.841C-4.47764 305.841 -4.16501 305.633 -3.85239 305.529C-3.22714 305.425 -2.72695 305.279 -3.58145 304.737C-3.58145 302.048 -3.58145 299.36 -3.58145 296.65C-3.4564 296.483 -3.3105 296.296 -3.18546 296.129C-3.41471 296.046 -3.66482 295.962 -3.89407 295.879C-4.16501 295.733 -4.43595 295.587 -4.70689 295.441C-4.64437 295.087 -4.58184 294.441 -4.54016 294.441C-2.14338 294.42 0.253404 294.545 2.65018 294.691Z" fill="#5D6A86"/>
<path d="M14.0921 305.404C13.9045 304.904 13.5919 304.403 13.5711 303.882C13.5085 301.569 13.5085 299.235 13.5711 296.921C13.5711 296.546 13.9879 296.15 14.1963 295.775C14.1755 298.985 14.1338 302.194 14.0921 305.404Z" fill="#5D6A86"/>
<path d="M2.65009 294.691C0.253313 294.566 -2.14347 294.42 -4.54025 294.358C-4.58193 294.358 -4.6653 295.004 -4.70698 295.358C-5.37391 295.504 -5.93664 295.525 -5.97832 294.691C-5.99916 294.045 -5.83243 293.628 -4.97792 293.649C-2.78956 293.67 -0.601192 293.649 1.58717 293.649C2.35831 293.628 2.62925 294.045 2.65009 294.691Z" fill="#5D6A86"/>
<path d="M15.2177 295.337C15.3427 294.524 14.9051 294.253 14.0297 294.274C11.9664 294.316 9.88225 294.295 7.7981 294.316C8.04819 294.087 8.29829 293.649 8.54839 293.649C10.841 293.607 13.1127 293.607 15.4053 293.649C15.6762 293.649 16.1972 294.045 16.1556 294.212C16.0722 294.691 16.5099 295.629 15.2177 295.337Z" fill="#5D6A86"/>
<path d="M16.0305 306.154C15.4678 305.987 14.8843 305.821 14.3215 305.633C14.9259 305.716 15.7388 305.237 16.0305 306.154Z" fill="#5D6A86"/>
<rect x="349.37" y="254.37" width="94.7521" height="93.26" rx="9.13" fill="#242E49" stroke="#5C6A85" stroke-width="0.74"/>
<rect x="324.37" y="358.37" width="143.244" height="93.26" rx="9.13" fill="#242E49" stroke="#5C6A85" stroke-width="0.74"/>
<path d="M342.669 411.41C342.936 411.499 343.293 411.499 343.56 411.588C343.917 411.677 344.274 411.588 344.363 411.945C344.452 412.747 343.739 412.836 343.471 413.193C343.293 413.282 343.114 413.371 342.847 413.193C342.58 413.193 342.401 413.371 342.134 413.549C338.389 414.263 335.892 412.925 335.179 409.716C336.873 408.556 339.637 408.913 341.242 410.518C341.777 410.875 342.134 411.32 342.669 411.41Z" fill="#5D6A86"/>
<path d="M342.668 411.409C341.153 412.479 341.242 410.785 340.707 410.34C338.835 410.607 337.23 408.645 335.357 409.715C334.555 408.021 335.268 406.506 335.892 404.99C336.784 404.722 337.141 405.436 337.675 405.882C338.835 406.773 339.994 407.665 341.242 408.378C341.331 409.537 341.688 410.607 342.668 411.409Z" fill="#5D6A86"/>
<path d="M353.903 397.144C355.686 397.59 356.132 399.105 356.578 400.532C354.884 401.424 353.011 402.048 351.317 402.85C350.515 401.602 350.069 400.264 349.534 398.927C350.961 398.214 352.744 398.481 353.903 397.144Z" fill="#5D6A86"/>
<path d="M337.051 402.226C337.23 401.424 337.675 400.71 338.3 400.175C339.815 401.156 341.866 401.156 343.114 402.761C342.579 404.098 341.955 405.525 341.42 406.862C340.529 406.06 339.815 404.99 338.389 404.722C337.23 404.366 336.695 403.474 337.051 402.226Z" fill="#5D6A86"/>
<path d="M353.903 397.144C353.368 398.66 351.852 399.284 349.445 398.927C348.731 398.392 348.375 397.411 347.483 397.233C346.859 397.144 346.413 396.965 346.324 396.341C348.196 396.074 350.069 396.341 351.941 396.252C352.833 396.074 353.189 396.965 353.903 397.144Z" fill="#5D6A86"/>
<path d="M337.051 402.226C337.319 402.85 337.586 403.385 337.765 403.831C338.656 404.722 339.726 404.366 340.528 404.812C341.063 405.436 341.153 406.149 341.42 406.951C341.331 407.486 341.331 407.932 341.242 408.467C340.707 408.467 340.261 408.467 339.637 408.467C338.834 406.862 336.784 406.506 335.803 405.079C335.981 403.92 336.338 402.939 337.051 402.226Z" fill="#5D6A86"/>
<path d="M346.324 396.252C346.681 396.52 347.127 396.876 347.483 397.144C346.859 398.214 345.522 398.57 344.898 399.729C343.56 398.749 341.777 398.66 340.261 397.857C341.955 395.985 344.095 395.985 346.324 396.252Z" fill="#5D6A86"/>
<path d="M343.114 402.761C342.936 402.582 342.668 402.226 342.49 402.226C340.529 402.672 339.548 401.245 338.3 400.175C338.478 399.462 338.924 399.016 339.548 398.659C340.974 399.194 342.579 399.462 343.649 400.621C343.738 400.888 343.738 401.067 343.471 401.245C343.649 401.245 343.738 401.245 343.828 401.334C343.828 401.958 343.471 402.315 343.114 402.761Z" fill="#5D6A86"/>
<path d="M343.56 401.423C343.471 400.532 342.758 400.354 342.045 400.175C341.153 399.819 340.172 399.551 339.548 398.659C339.548 398.57 339.548 398.481 339.726 398.392C339.816 398.214 339.994 398.125 340.083 398.035C340.172 397.946 340.261 397.857 340.351 397.946C341.777 397.5 342.936 398.927 344.184 398.481C344.898 398.838 344.809 399.373 344.898 399.819C344.541 399.908 344.63 400.443 344.363 400.621C344.363 400.978 344.095 401.245 343.828 401.513C343.828 401.423 343.649 401.423 343.56 401.423Z" fill="#5D6A86"/>
<path d="M343.56 413.104C343.738 412.747 344.006 412.39 344.184 412.034C344.006 411.855 343.828 411.677 343.56 411.499C344.63 411.409 345.611 411.32 346.592 410.875C346.77 410.875 346.948 411.053 346.948 411.231C346.057 412.212 344.897 412.925 343.56 413.104Z" fill="#5D6A86"/>
<path d="M347.038 411.231C346.948 411.142 346.77 410.964 346.681 410.875C346.859 410.518 347.127 410.34 347.573 410.34C347.84 410.875 347.394 411.053 347.038 411.231Z" fill="#5D6A86"/>
<path d="M344.452 400.532C344.452 400.175 344.541 399.819 344.987 399.729C344.897 400.086 344.719 400.354 344.452 400.532Z" fill="#5D6A86"/>
<path d="M340.083 398.035C339.994 398.125 339.815 398.303 339.726 398.392C339.726 398.125 339.815 398.035 340.083 398.035Z" fill="#5D6A86"/>
<path d="M342.312 413.46C342.579 413.371 342.758 413.193 343.025 413.104C342.847 413.46 342.579 413.46 342.312 413.46Z" fill="#5D6A86"/>
<path d="M343.56 401.424C343.56 401.513 343.471 401.602 343.56 401.424C343.471 401.513 343.471 401.513 343.56 401.424Z" fill="#5D6A86"/>
<rect x="-72.63" y="462.37" width="94.7521" height="93.26" rx="9.13" fill="#242E49" stroke="#5C6A85" stroke-width="0.74"/>
<path d="M5.64027 501C5.64027 506.487 5.64027 511.832 5.64027 517.247C4.35758 517.247 3.07489 517.247 1.72095 517.247C1.72095 516.962 1.72095 516.606 1.72095 516.321C1.72095 511.547 1.72095 506.772 1.72095 501.998C1.72095 501.285 1.86346 501 2.64733 501C3.64497 501.071 4.57136 501 5.64027 501Z" fill="#5D6A86"/>
</g>
</svg>
